<?xml version="1.0" encoding="utf-8"?>
<!-- Generator: Adobe Illustrator 22.0.1, SVG Export Plug-In . SVG Version: 6.00 Build 0)  -->
<svg version="1.1" id="Layer_1" xmlns="http://www.w3.org/2000/svg" xmlns:xlink="http://www.w3.org/1999/xlink" x="0px" y="0px"
	 viewBox="0 0 20 14" style="enable-background:new 0 0 20 14;" xml:space="preserve">
<style type="text/css">
	.st0{fill:#432671;}
</style>
<path class="st0" d="M0.3,6.3l6-6.1c0.4-0.4,1-0.4,1.3,0c0.4,0.4,0.4,1,0,1.3L3.2,6.1h15.9C19.6,6.1,20,6.5,20,7
	c0,0.5-0.4,0.9-0.9,0.9H3.2l4.4,4.4c0.4,0.4,0.4,1,0,1.3C7.4,13.9,7.1,14,6.9,14s-0.5-0.1-0.7-0.3l-6-6.1C-0.1,7.3-0.1,6.7,0.3,6.3
	L0.3,6.3z"/>
</svg>
