<?xml version="1.0" encoding="utf-8"?>
<!-- Generator: Adobe Illustrator 22.0.1, SVG Export Plug-In . SVG Version: 6.00 Build 0)  -->
<svg version="1.1" id="Layer_1" xmlns="http://www.w3.org/2000/svg" xmlns:xlink="http://www.w3.org/1999/xlink" x="0px" y="0px"
	 viewBox="0 0 30 30" style="enable-background:new 0 0 30 30;" xml:space="preserve">
<style type="text/css">
	.st0{fill:#687482;}
</style>
<path class="st0" d="M11.6,13.8h-3v-2.5h0h2.8h0.4c0,0,0.8,0,0.8,1.1S12.2,13.8,11.6,13.8L11.6,13.8z M18.1,15.5
	c0,0,0.2-1.7,1.9-1.7c1.7,0,1.7,1.7,1.7,1.7H18.1L18.1,15.5z M11.7,18.5c-0.1,0-0.2,0-0.2,0H8.6v-3h3.2c0,0,1.2,0,1.2,1.5
	C13,18.3,12.1,18.5,11.7,18.5L11.7,18.5z M15,30C6.7,30,0,23.3,0,15C0,6.7,6.7,0,15,0c8.3,0,15,6.7,15,15C30,23.3,23.3,30,15,30
	L15,30z M13.3,14.4c0,0,1.7-0.1,1.7-2.1s-1.4-2.9-3.1-2.9H8.6H8.5H6.1v11h2.4h0.1h3.2c0,0,3.5,0.1,3.5-3.3
	C15.4,17.2,15.5,14.4,13.3,14.4L13.3,14.4z M22.2,10h-4.6v1.4h4.6V10L22.2,10z M20,12.2c-4.2,0-4.2,4.2-4.2,4.2s-0.3,4.2,4.2,4.2
	c0,0,3.8,0.2,3.8-2.9h-1.9c0,0,0.1,1.2-1.8,1.2c0,0-1.9,0.1-1.9-1.9h5.7C23.9,17,24.5,12.2,20,12.2L20,12.2z"/>
</svg>
