<?xml version="1.0" encoding="utf-8"?>
<!-- Generator: Adobe Illustrator 22.0.1, SVG Export Plug-In . SVG Version: 6.00 Build 0)  -->
<svg version="1.1" id="Layer_1" xmlns="http://www.w3.org/2000/svg" xmlns:xlink="http://www.w3.org/1999/xlink" x="0px" y="0px"
	 viewBox="0 0 30 30" style="enable-background:new 0 0 30 30;" xml:space="preserve">
<style type="text/css">
	.st0{fill:#687482;}
</style>
<path class="st0" d="M15,0C6.7,0,0,6.7,0,15c0,8.3,6.7,15,15,15c8.3,0,15-6.7,15-15C30,6.7,23.3,0,15,0L15,0z M11.2,22.3H7.5V9.1
	h3.7V22.3L11.2,22.3z M9.5,8.3c-1,0-1.8-0.8-1.8-1.8c0-1,0.8-1.8,1.8-1.8c1,0,1.8,0.8,1.8,1.8C11.2,7.5,10.5,8.3,9.5,8.3L9.5,8.3z
	 M24.4,22.3h-3.7v-8.1c0-0.9-0.3-1.6-1.4-1.6c-1.9,0-2.3,1.6-2.3,1.6v8.1h-3.7V9.1h3.7v1.3c0.5-0.4,1.9-1.3,3.7-1.3
	c1.2,0,3.7,0.7,3.7,5.1V22.3L24.4,22.3z"/>
</svg>
