<?xml version="1.0" encoding="utf-8"?>
<!-- Generator: Adobe Illustrator 22.0.1, SVG Export Plug-In . SVG Version: 6.00 Build 0)  -->
<svg version="1.1" id="Layer_1" xmlns="http://www.w3.org/2000/svg" xmlns:xlink="http://www.w3.org/1999/xlink" x="0px" y="0px"
	 viewBox="0 0 22 30" style="enable-background:new 0 0 22 30;" xml:space="preserve">
<style type="text/css">
	.st0{fill:#432671;}
</style>
<path class="st0" d="M11,0C4.9,0,0,4.9,0,10.9c0,7.4,9.8,18.3,10.3,18.8c0.4,0.4,1.1,0.4,1.5,0C12.2,29.2,22,18.3,22,10.9
	C22,4.9,17.1,0,11,0L11,0z M11,16.3c-3.1,0-5.5-2.5-5.5-5.5c0-3,2.5-5.5,5.5-5.5s5.5,2.5,5.5,5.5C16.5,13.9,14.1,16.3,11,16.3
	L11,16.3z"/>
</svg>
