<?xml version="1.0" encoding="utf-8"?>
<!-- Generator: Adobe Illustrator 22.0.1, SVG Export Plug-In . SVG Version: 6.00 Build 0)  -->
<svg version="1.1" id="Layer_1" xmlns="http://www.w3.org/2000/svg" xmlns:xlink="http://www.w3.org/1999/xlink" x="0px" y="0px"
	 viewBox="0 0 20 16" style="enable-background:new 0 0 20 16;" xml:space="preserve">
<style type="text/css">
	.st0{fill:#432671;}
</style>
<path class="st0" d="M9.1,12.7C8.6,14.7,6.8,16,4.9,16c0,0,0,0,0,0c-1.6-0.1-2.8-0.7-3.7-1.9C-0.4,12-0.2,8.7,0.4,6.4
	C1.5,2.7,4,0,6.5,0C6.7,0,6.8,0,7,0c0.1,0,0.3,0.1,0.3,0.2c0.1,0.1,0.1,0.3,0.1,0.4L6.9,2.3C6.9,2.5,6.7,2.7,6.5,2.7
	C4.4,3,3.4,5.8,2.9,7.4C3.4,7.2,4,7,4.7,7c0.5,0,0.9,0.1,1.4,0.2c1.1,0.3,2.1,1.1,2.7,2.1C9.3,10.4,9.4,11.6,9.1,12.7L9.1,12.7z
	 M18.8,12.7c-0.5,1.9-2.3,3.3-4.3,3.3c0,0,0,0,0,0c-1.6-0.1-2.8-0.7-3.7-1.9C9.3,12,9.5,8.7,10.1,6.4C11.2,2.7,13.7,0,16.2,0
	c0.2,0,0.3,0,0.5,0c0.1,0,0.3,0.1,0.3,0.2c0.1,0.1,0.1,0.3,0.1,0.4l-0.5,1.7c-0.1,0.2-0.2,0.3-0.4,0.4c-2.1,0.3-3.2,3.1-3.6,4.7
	c0.5-0.2,1-0.4,1.7-0.4c0.5,0,0.9,0.1,1.4,0.2c1.1,0.3,2.1,1.1,2.7,2.1C19,10.4,19.1,11.6,18.8,12.7L18.8,12.7z"/>
</svg>
