<?xml version="1.0" encoding="utf-8"?>
<!-- Generator: Adobe Illustrator 22.0.1, SVG Export Plug-In . SVG Version: 6.00 Build 0)  -->
<svg version="1.1" id="Layer_1" xmlns="http://www.w3.org/2000/svg" xmlns:xlink="http://www.w3.org/1999/xlink" x="0px" y="0px"
	 viewBox="0 0 58 59" style="enable-background:new 0 0 58 59;" xml:space="preserve">
<style type="text/css">
	.st0{fill:#432671;}
	.st1{fill-rule:evenodd;clip-rule:evenodd;fill:#432671;}
</style>
<path class="st0" d="M57.5,39.3L29.9,51.7c0,0,0,0,0,0l0,0c-0.1,0.1-0.3,0.1-0.5,0.1c-0.2,0-0.3,0-0.5-0.1L1.5,39.3
	c-0.4-0.2-0.7-0.6-0.7-1V14.4c0-0.4,0.3-0.9,0.7-1L29,0.9h0c0.3-0.1,0.6-0.1,0.9,0l27.5,12.5c0.4,0.2,0.7,0.6,0.7,1v23.9
	C58.1,38.7,57.9,39.1,57.5,39.3L57.5,39.3z M28.3,3.7L7.6,13.1h20.7V3.7L28.3,3.7z M28.3,15.3H7L27,24l1.4,0.6V15.3L28.3,15.3z
	 M28.3,27.1L4.8,16.9l-1.7-0.7v21.4l25.2,11.4V27.1L28.3,27.1z M30.6,3.7v9.4h10.3c0.6,0,1.1,0.5,1.1,1.1c0,0.6-0.5,1.1-1.1,1.1
	H30.6v9.2L32,24l22.2-9.6L30.6,3.7L30.6,3.7z M55.9,16.1l-1.7,0.7L30.6,27.1v21.9l25.2-11.4V16.1L55.9,16.1z M45.7,15.3h-0.8
	c-0.6,0-1.1-0.5-1.1-1.1c0-0.6,0.5-1.1,1.1-1.1h0.8c0.6,0,1.1,0.5,1.1,1.1C46.8,14.8,46.3,15.3,45.7,15.3L45.7,15.3z M48.8,35.2
	l-8.7,3.9c-0.1,0.1-0.3,0.1-0.5,0.1c-0.2,0-0.4-0.1-0.6-0.2c-0.3-0.2-0.5-0.6-0.5-1v-7.7c0-0.5,0.3-0.9,0.7-1l8.7-3.8
	c0.4-0.2,0.8-0.1,1.1,0.1s0.5,0.6,0.5,1v7.6C49.4,34.6,49.2,35,48.8,35.2L48.8,35.2z M47.2,28.4l-6.4,2.8v5.2l6.4-2.9V28.4
	L47.2,28.4z"/>
<path class="st1" d="M48.8,41.4l-8.7,3.9c-0.2,0.1-0.3,0.1-0.5,0.1c-0.1,0-0.2,0-0.3,0l9.9-4.3C49,41.2,48.9,41.3,48.8,41.4
	L48.8,41.4z M3.1,38.8v4.9l25.2,11.4v-6l1.2,0.5l1.1-0.5v6l25.2-11.4v-5.5l2.3-1v7.3c0,0.4-0.3,0.9-0.7,1L29.9,57.9c0,0,0,0,0,0l0,0
	C29.8,58,29.6,58,29.5,58s-0.3,0-0.5-0.1L1.5,45.5c-0.4-0.2-0.7-0.6-0.7-1v-6.6L3.1,38.8L3.1,38.8z"/>
</svg>
