<?xml version="1.0" encoding="utf-8"?>
<!-- Generator: Adobe Illustrator 22.0.1, SVG Export Plug-In . SVG Version: 6.00 Build 0)  -->
<svg version="1.1" id="Layer_1" xmlns="http://www.w3.org/2000/svg" xmlns:xlink="http://www.w3.org/1999/xlink" x="0px" y="0px"
	 viewBox="0 0 22 22" style="enable-background:new 0 0 22 22;" xml:space="preserve">
<style type="text/css">
	.st0{fill:#909090;}
</style>
<path class="st0" d="M11.7,0.3c-0.6-0.4-1.4-0.4-2,0l-9,6.1C0.3,6.7,0,7.3,0,7.8v6.6c0,0.6,0.3,1.1,0.8,1.4l9.1,5.9
	c0.6,0.4,1.4,0.4,2,0l9.3-6c0.5-0.3,0.8-0.9,0.8-1.4V7.8c0-0.6-0.3-1.1-0.8-1.4L11.7,0.3L11.7,0.3z M18.7,7.4l-3.4,2.2L12,7.4l0-4.5
	L18.7,7.4L18.7,7.4z M9.7,2.9v4.4L6.4,9.5L3.1,7.4L9.7,2.9L9.7,2.9z M2.2,9.5l2.1,1.4l-2.1,1.5V9.5L2.2,9.5z M9.7,18.9l-6.7-4.3
	l3.3-2.3l3.3,2.2V18.9L9.7,18.9z M8.5,10.9l2.2-1.5l2.5,1.6l-2.2,1.5L8.5,10.9L8.5,10.9z M12.1,18.9v-4.4l3.2-2.1l3.4,2.2L12.1,18.9
	L12.1,18.9z M19.6,12.5L17.4,11l2.3-1.5V12.5L19.6,12.5z"/>
</svg>
