<?xml version="1.0" encoding="utf-8"?>
<!-- Generator: Adobe Illustrator 22.0.1, SVG Export Plug-In . SVG Version: 6.00 Build 0)  -->
<svg version="1.1" id="Layer_1" xmlns="http://www.w3.org/2000/svg" xmlns:xlink="http://www.w3.org/1999/xlink" x="0px" y="0px"
	 viewBox="0 0 25 24" style="enable-background:new 0 0 25 24;" xml:space="preserve">
<style type="text/css">
	.st0{fill:#909090;}
</style>
<path class="st0" d="M12.5,4.5c-1.2,0-2.2-1-2.2-2.2c0-1.2,1-2.2,2.2-2.2c1.2,0,2.2,1,2.2,2.2C14.7,3.5,13.7,4.5,12.5,4.5L12.5,4.5z
	 M16.9,10.5c-0.8,0-1.5-0.7-1.5-1.5V7.5H9.6V9c0,0.8-0.7,1.5-1.5,1.5S6.6,9.8,6.6,9V6c0-1.4,1-2.6,2.3-2.9C9.3,4.7,10.8,6,12.5,6
	s3.2-1.3,3.6-2.9c1.3,0.3,2.3,1.5,2.3,2.9v3C18.4,9.8,17.7,10.5,16.9,10.5L16.9,10.5z M24.7,21.4c-0.6,1.1-2,1.4-3.1,0.8
	c-1.1-0.6-1.4-2-0.8-3.1c0.6-1.1,2-1.4,3-0.8C24.9,18.9,25.3,20.3,24.7,21.4L24.7,21.4z M23.9,16.7c-1.6-0.5-3.4,0.2-4.3,1.7
	c-0.9,1.5-0.5,3.5,0.7,4.6c-0.9,1-2.4,1.3-3.6,0.6l-2.5-1.5c-0.7-0.4-0.9-1.3-0.5-2s1.3-1,2-0.5l1.3,0.7l2.9-5.2l-1.3-0.7
	c-0.7-0.4-0.9-1.3-0.5-2c0.4-0.7,1.3-1,2-0.5l2.5,1.5C23.7,13.9,24.3,15.4,23.9,16.7L23.9,16.7z M3.3,22.2c-1.1,0.6-2.4,0.3-3.1-0.8
	c-0.6-1.1-0.2-2.5,0.9-3.1c1.1-0.6,2.4-0.3,3,0.8C4.7,20.2,4.4,21.6,3.3,22.2L3.3,22.2z M10.9,22.1l-2.5,1.5C7.1,24.3,5.6,24,4.7,23
	c1.2-1.2,1.6-3.1,0.7-4.6c-0.9-1.5-2.7-2.2-4.3-1.7c-0.4-1.3,0.1-2.8,1.3-3.5L5,11.7c0.7-0.4,1.6-0.2,2,0.5c0.4,0.7,0.2,1.6-0.5,2
	L5.2,15l2.9,5.2l1.3-0.7c0.7-0.4,1.6-0.2,2,0.5S11.6,21.7,10.9,22.1L10.9,22.1z"/>
</svg>
