<?xml version="1.0" encoding="utf-8"?>
<!-- Generator: Adobe Illustrator 22.0.1, SVG Export Plug-In . SVG Version: 6.00 Build 0)  -->
<svg version="1.1" id="Layer_1" xmlns="http://www.w3.org/2000/svg" xmlns:xlink="http://www.w3.org/1999/xlink" x="0px" y="0px"
	 viewBox="0 0 21 23" style="enable-background:new 0 0 21 23;" xml:space="preserve">
<style type="text/css">
	.st0{fill:#909090;}
</style>
<path class="st0" d="M20.7,8.4c-0.4-0.4-1-0.4-1.3,0L8.2,19.9c-1.5,1.5-3.8,1.5-5.3,0s-1.5-3.9,0-5.4L14.4,2.6
	c0.9-0.9,2.4-0.9,3.3,0c0.9,0.9,0.9,2.4,0,3.4l-9.5,9.8c0,0,0,0,0,0c-0.4,0.4-1,0.4-1.3,0c-0.4-0.4-0.4-1,0-1.4l4.6-4.7
	c0.4-0.4,0.4-1,0-1.4c-0.4-0.4-1-0.4-1.3,0l-4.6,4.7c-1.1,1.1-1.1,2.9,0,4.1c1.1,1.1,2.9,1.1,3.9,0c0,0,0,0,0,0L19,7.4
	c1.6-1.7,1.6-4.4,0-6.1c-1.6-1.7-4.3-1.7-5.9,0L1.6,13.2c-2.2,2.2-2.2,5.9,0,8.1c2.2,2.2,5.7,2.2,7.9,0L20.7,9.7
	C21.1,9.3,21.1,8.7,20.7,8.4L20.7,8.4z"/>
</svg>
