<?xml version="1.0" encoding="utf-8"?>
<!-- Generator: Adobe Illustrator 22.0.1, SVG Export Plug-In . SVG Version: 6.00 Build 0)  -->
<svg version="1.1" id="Layer_1" xmlns="http://www.w3.org/2000/svg" xmlns:xlink="http://www.w3.org/1999/xlink" x="0px" y="0px"
	 viewBox="0 0 52 52" style="enable-background:new 0 0 52 52;" xml:space="preserve">
<style type="text/css">
	.st0{fill:#432671;}
</style>
<path class="st0" d="M38.6,30.2V15.1h-5v15.1h-1.7V15.1h-6.7v3.5c1,0.3,1.7,1.3,1.7,2.4c0,1.4-1.1,2.5-2.5,2.5s-2.5-1.1-2.5-2.5
	c0-1.1,0.7-2,1.7-2.4v-3.5H10.1v3.5c1,0.3,1.7,1.3,1.7,2.4c0,1.4-1.1,2.5-2.5,2.5c-1.4,0-2.5-1.1-2.5-2.5c0-1.1,0.7-2,1.7-2.4v-3.5
	H1.7v35.2h20.1V52H0V13.4h8.4v-5c0-4.6,3.8-8.4,8.4-8.4c1.2,0,2.3,0.3,3.4,0.7c1-0.5,2.2-0.7,3.4-0.7c4.6,0,8.4,3.8,8.4,8.4v5h8.4
	v16.8H38.6L38.6,30.2z M24.3,21.8c0.5,0,0.8-0.4,0.8-0.8s-0.4-0.8-0.8-0.8c-0.5,0-0.8,0.4-0.8,0.8S23.9,21.8,24.3,21.8L24.3,21.8z
	 M9.2,20.1c-0.5,0-0.8,0.4-0.8,0.8s0.4,0.8,0.8,0.8c0.5,0,0.8-0.4,0.8-0.8S9.7,20.1,9.2,20.1L9.2,20.1z M16.8,1.7
	c-3.7,0-6.7,3-6.7,6.7v5h5v-5c0-2.6,1.2-5,3.2-6.5C17.8,1.7,17.3,1.7,16.8,1.7L16.8,1.7z M20.1,2.6c-2,1.2-3.4,3.3-3.4,5.8v5h6.7v-5
	C23.5,5.9,22.1,3.7,20.1,2.6L20.1,2.6z M30.2,8.4c0-3.7-3-6.7-6.7-6.7c-0.5,0-1,0.1-1.5,0.2c1.9,1.5,3.2,3.9,3.2,6.5v5h5V8.4
	L30.2,8.4z M49.5,52H26c-1.4,0-2.5-1.1-2.5-2.5V34.4c0-1.4,1.1-2.5,2.5-2.5h23.5c1.4,0,2.5,1.1,2.5,2.5v15.1
	C52,50.9,50.9,52,49.5,52L49.5,52z M50.3,34.4c0-0.5-0.4-0.8-0.8-0.8H26c-0.5,0-0.8,0.4-0.8,0.8v0.8h25.2V34.4L50.3,34.4z
	 M50.3,36.9H25.2v1.7h25.2V36.9L50.3,36.9z M50.3,40.3H25.2v9.2c0,0.5,0.4,0.8,0.8,0.8h23.5c0.5,0,0.8-0.4,0.8-0.8V40.3L50.3,40.3z
	 M45.3,48.6c-1,0-1.9-0.5-2.5-1.2c-0.6,0.7-1.5,1.2-2.5,1.2c-1.9,0-3.4-1.5-3.4-3.4s1.5-3.4,3.4-3.4c1,0,1.9,0.5,2.5,1.2
	c0.6-0.7,1.5-1.2,2.5-1.2c1.9,0,3.4,1.5,3.4,3.4S47.1,48.6,45.3,48.6L45.3,48.6z M40.3,43.6c-0.9,0-1.7,0.8-1.7,1.7
	c0,0.9,0.8,1.7,1.7,1.7c0.9,0,1.7-0.8,1.7-1.7C41.9,44.4,41.2,43.6,40.3,43.6L40.3,43.6z M45.3,43.6c-0.9,0-1.7,0.8-1.7,1.7
	c0,0.9,0.8,1.7,1.7,1.7c0.9,0,1.7-0.8,1.7-1.7C47,44.4,46.2,43.6,45.3,43.6L45.3,43.6z M35.2,30.2v-7.4h1.7v7.4H35.2L35.2,30.2z
	 M35,21v-2h2v2H35L35,21z"/>
</svg>
