<?xml version="1.0" encoding="utf-8"?>
<!-- Generator: Adobe Illustrator 22.0.1, SVG Export Plug-In . SVG Version: 6.00 Build 0)  -->
<svg version="1.1" id="Layer_1" xmlns="http://www.w3.org/2000/svg" xmlns:xlink="http://www.w3.org/1999/xlink" x="0px" y="0px"
	 viewBox="0 0 49 52" style="enable-background:new 0 0 49 52;" xml:space="preserve">
<style type="text/css">
	.st0{fill:#432671;}
</style>
<path class="st0" d="M23.6,49.4c-1.5,0-2.6-1.2-2.6-2.6c0-1.4,1.2-2.6,2.6-2.6c1.4,0,2.6,1.2,2.6,2.6C26.2,48.2,25.1,49.4,23.6,49.4
	L23.6,49.4z M23.6,45.9c-0.5,0-0.9,0.4-0.9,0.9c0,0.5,0.4,0.9,0.9,0.9c0.5,0,0.9-0.4,0.9-0.9C24.5,46.3,24.1,45.9,23.6,45.9
	L23.6,45.9z M19.2,4.3h-1.8c-0.5,0-0.9-0.4-0.9-0.9c0-0.5,0.4-0.9,0.9-0.9h1.8c0.5,0,0.9,0.4,0.9,0.9C20.1,3.9,19.7,4.3,19.2,4.3
	L19.2,4.3z M29.7,4.3h-7c-0.5,0-0.9-0.4-0.9-0.9c0-0.5,0.4-0.9,0.9-0.9h7c0.5,0,0.9,0.4,0.9,0.9C30.6,3.9,30.2,4.3,29.7,4.3
	L29.7,4.3z M30.6,28.6h-4.4v4.3c0,0.5-0.4,0.9-0.9,0.9h-3.5c-0.5,0-0.9-0.4-0.9-0.9v-4.3h-4.4c-0.5,0-0.9-0.4-0.9-0.9v-3.5
	c0-0.5,0.4-0.9,0.9-0.9H21v-4.3c0-0.5,0.4-0.9,0.9-0.9h3.5c0.5,0,0.9,0.4,0.9,0.9v4.3h4.4c0.5,0,0.9,0.4,0.9,0.9v3.5
	C31.5,28.2,31.1,28.6,30.6,28.6L30.6,28.6z M29.7,25.1h-4.4c-0.5,0-0.9-0.4-0.9-0.9v-4.3h-1.8v4.3c0,0.5-0.4,0.9-0.9,0.9h-4.4v1.7
	h4.4c0.5,0,0.9,0.4,0.9,0.9v4.3h1.8v-4.3c0-0.5,0.4-0.9,0.9-0.9h4.4V25.1L29.7,25.1z M40.8,49.4c-0.7,1.6-2.3,2.6-4,2.6H12.2
	c-2.4,0-4.4-1.9-4.4-4.3V19.9C3.6,19.5,0.3,16,0,11.8C-0.3,7,3.4,2.9,8.2,2.6C8.9,1,10.5,0,12.2,0h24.5c2.4,0,4.4,1.9,4.4,4.3v27.8
	c4.5,0.4,7.9,4.2,7.9,8.6C49,45.3,45.4,49.1,40.8,49.4L40.8,49.4z M9.6,47.7c0,1.4,1.2,2.6,2.6,2.6h24.5c0.8,0,1.6-0.4,2.1-1
	c0,0,0,0-0.1,0c-0.4-0.1-0.7-0.2-1.1-0.3c-0.1,0-0.2,0-0.2-0.1c-0.3-0.1-0.7-0.2-1-0.4c-0.1,0-0.1-0.1-0.2-0.1
	c-0.3-0.2-0.6-0.3-0.9-0.6c0,0-0.1-0.1-0.1-0.1c-0.3-0.2-0.6-0.4-0.8-0.7c0,0-0.1-0.1-0.1-0.1c-0.3-0.3-0.5-0.5-0.8-0.8
	c0-0.1-0.1-0.1-0.1-0.2c-0.2-0.3-0.4-0.6-0.6-0.9c0-0.1-0.1-0.1-0.1-0.2c-0.2-0.3-0.4-0.7-0.5-1c0,0,0-0.1-0.1-0.1
	c-0.1-0.2-0.1-0.3-0.2-0.5H9.6V47.7L9.6,47.7z M8.8,4.3L8.8,4.3c-4,0-7.1,3.1-7.1,6.9c0,3.8,3.1,6.9,6.9,6.9c3.9,0.1,7-3,7.1-6.8
	C15.8,7.5,12.7,4.4,8.8,4.3L8.8,4.3z M39.4,4.3c0-1.4-1.2-2.6-2.6-2.6H12.2c-0.8,0-1.6,0.4-2.1,1c0.1,0,0.2,0,0.3,0.1
	c0.1,0,0.2,0,0.2,0C11,2.9,11.2,3,11.4,3c0,0,0.1,0,0.1,0c0.3,0.1,0.5,0.2,0.8,0.3c0,0,0.1,0,0.1,0.1c0.2,0.1,0.4,0.2,0.6,0.3
	c0.1,0,0.2,0.1,0.2,0.1c0.2,0.1,0.3,0.2,0.5,0.3c0.1,0.1,0.2,0.1,0.2,0.2c0.2,0.1,0.3,0.2,0.5,0.4c0.1,0.1,0.1,0.1,0.2,0.2
	C14.8,5,14.9,5.1,15,5.2h24.4V4.3L39.4,4.3z M39.4,6.9H16.3c0,0,0,0.1,0.1,0.1c0.1,0.2,0.3,0.5,0.4,0.7c0,0.1,0.1,0.2,0.1,0.2
	C17,8.3,17.1,8.7,17.2,9c0,0.1,0,0.1,0,0.2c0.1,0.3,0.1,0.6,0.2,0.8c0,0.1,0,0.2,0,0.3c0,0.3,0.1,0.7,0.1,1c0,0.3,0,0.6,0,0.9
	c0,0.1,0,0.2,0,0.3c0,0.2,0,0.4-0.1,0.6c0,0.1-0.1,0.2-0.1,0.3c0,0.2-0.1,0.3-0.1,0.5c0,0.1-0.1,0.2-0.1,0.3
	c-0.1,0.2-0.1,0.3-0.2,0.4c0,0.1-0.1,0.2-0.1,0.3c-0.1,0.1-0.1,0.3-0.2,0.4c-0.1,0.1-0.1,0.2-0.2,0.3c-0.1,0.1-0.2,0.3-0.2,0.4
	c-0.1,0.1-0.1,0.2-0.2,0.3c-0.1,0.1-0.2,0.2-0.3,0.4c-0.1,0.1-0.2,0.2-0.2,0.3c-0.1,0.1-0.2,0.2-0.3,0.3c-0.1,0.1-0.2,0.2-0.3,0.3
	c-0.1,0.1-0.2,0.2-0.3,0.3c-0.1,0.1-0.2,0.2-0.3,0.2c-0.1,0.1-0.2,0.2-0.4,0.3c-0.1,0.1-0.2,0.1-0.3,0.2c-0.1,0.1-0.3,0.2-0.4,0.2
	c-0.1,0.1-0.2,0.1-0.3,0.2c-0.1,0.1-0.3,0.1-0.4,0.2c-0.1,0-0.2,0.1-0.3,0.1c-0.2,0.1-0.3,0.1-0.5,0.2c-0.1,0-0.2,0.1-0.3,0.1
	c-0.2,0-0.3,0.1-0.5,0.1c-0.1,0-0.2,0.1-0.3,0.1c-0.2,0-0.4,0.1-0.6,0.1c-0.1,0-0.1,0-0.2,0h0v21.7h21.9c0-0.3,0-0.6,0-0.9
	c0-0.3,0-0.6,0-0.9c0-0.1,0-0.2,0-0.3c0-0.2,0-0.4,0.1-0.6c0-0.1,0.1-0.2,0.1-0.3c0-0.2,0.1-0.3,0.1-0.5c0-0.1,0.1-0.2,0.1-0.3
	c0.1-0.2,0.1-0.3,0.2-0.4c0-0.1,0.1-0.2,0.1-0.3c0.1-0.1,0.1-0.3,0.2-0.4c0.1-0.1,0.1-0.2,0.2-0.3c0.1-0.1,0.2-0.3,0.2-0.4
	c0.1-0.1,0.1-0.2,0.2-0.3c0.1-0.1,0.2-0.2,0.3-0.4c0.1-0.1,0.2-0.2,0.2-0.3c0.1-0.1,0.2-0.2,0.3-0.3c0.1-0.1,0.2-0.2,0.3-0.3
	c0.1-0.1,0.2-0.2,0.3-0.3c0.1-0.1,0.2-0.2,0.3-0.2c0.1-0.1,0.2-0.2,0.4-0.3c0.1-0.1,0.2-0.1,0.3-0.2c0.1-0.1,0.3-0.2,0.4-0.2
	c0.1-0.1,0.2-0.1,0.3-0.2c0.1-0.1,0.3-0.1,0.4-0.2c0.1,0,0.2-0.1,0.3-0.1c0.2-0.1,0.3-0.1,0.5-0.2c0.1,0,0.2-0.1,0.3-0.1
	c0.2-0.1,0.3-0.1,0.5-0.1c0.1,0,0.2-0.1,0.3-0.1c0.2,0,0.4-0.1,0.6-0.1c0.1,0,0.1,0,0.2,0h0V6.9L39.4,6.9z M40.2,33.8
	c-3.9,0-7,3.1-7,6.9c0,0.5,0.1,1,0.2,1.5c0.7,3.1,3.5,5.3,6.7,5.4h0.1c3.9,0,7-3.1,7-6.9S44.1,33.8,40.2,33.8L40.2,33.8z M13.1,11.7
	l-3.7,3.7l0,0c-0.3,0.3-0.9,0.3-1.2,0l-3.7-3.7c-1-1-1-2.7,0-3.7c1-1,2.7-1,3.7,0l0.6,0.6L9.4,8c1-1,2.7-1,3.7,0c0,0,0,0,0,0
	C14.1,9,14.1,10.7,13.1,11.7L13.1,11.7z M11.8,9.2c-0.3-0.3-0.9-0.3-1.2,0l-1.2,1.2c-0.3,0.3-0.9,0.3-1.2,0L6.9,9.2
	C6.7,9.1,6.5,9,6.3,9C6,9,5.8,9.1,5.7,9.2c-0.3,0.3-0.3,0.9,0,1.2l3.1,3.1l3.1-3.1c0,0,0,0,0,0C12.2,10.1,12.2,9.6,11.8,9.2
	L11.8,9.2z M44,40.7l-3.7,3.7c-1,1-2.7,1-3.7,0c-1-1-1-2.7,0-3.7l3.7-3.7c1-1,2.7-1,3.7,0C45,38.1,45,39.7,44,40.7L44,40.7z
	 M39,40.7L37.8,42c-0.2,0.2-0.3,0.4-0.3,0.6c0,0.2,0.1,0.4,0.3,0.6c0.3,0.3,0.9,0.3,1.2,0l1.2-1.2L39,40.7L39,40.7z M42.1,38
	c-0.2,0-0.5,0.1-0.6,0.3l-1.2,1.2l1.2,1.2l1.2-1.2c0.2-0.2,0.3-0.4,0.3-0.6C43,38.4,42.6,38,42.1,38L42.1,38z M20.1,39.9h-7.9
	c-0.5,0-0.9-0.4-0.9-0.9v-3.5c0-0.5,0.4-0.9,0.9-0.9c0.5,0,0.9,0.4,0.9,0.9v2.6h7c0.5,0,0.9,0.4,0.9,0.9
	C21,39.5,20.6,39.9,20.1,39.9L20.1,39.9z M12.2,33.8c-0.5,0-0.9-0.4-0.9-0.9v-0.9c0-0.5,0.4-0.9,0.9-0.9c0.5,0,0.9,0.4,0.9,0.9v0.9
	C13.1,33.4,12.7,33.8,12.2,33.8L12.2,33.8z M36.7,15.6c-0.5,0-0.9-0.4-0.9-0.9v-4.3h-6.1c-0.5,0-0.9-0.4-0.9-0.9
	c0-0.5,0.4-0.9,0.9-0.9h7c0.5,0,0.9,0.4,0.9,0.9v5.2C37.6,15.2,37.2,15.6,36.7,15.6L36.7,15.6z M36.7,19.1c-0.5,0-0.9-0.4-0.9-0.9
	v-0.9c0-0.5,0.4-0.9,0.9-0.9c0.5,0,0.9,0.4,0.9,0.9v0.9C37.6,18.7,37.2,19.1,36.7,19.1L36.7,19.1z"/>
</svg>
