<?xml version="1.0" encoding="utf-8"?>
<!-- Generator: Adobe Illustrator 22.0.1, SVG Export Plug-In . SVG Version: 6.00 Build 0)  -->
<svg version="1.1" id="Layer_1" xmlns="http://www.w3.org/2000/svg" xmlns:xlink="http://www.w3.org/1999/xlink" x="0px" y="0px"
	 viewBox="0 0 186 40" style="enable-background:new 0 0 186 40;" xml:space="preserve">
<style type="text/css">
	.st0{fill:#FFFFFF;}
	.st1{fill-rule:evenodd;clip-rule:evenodd;fill:#FFFFFF;stroke:#FFFFFF;stroke-width:0.8504;stroke-miterlimit:22.9256;}
</style>
<path class="st0" d="M33.6,10.5c0.8,0,1.4,0.1,1.9,0.2c0.5,0.1,1,0.3,1.3,0.5c0.4,0.2,0.7,0.4,0.9,0.7c-0.1,0.2-0.2,0.4-0.3,0.6
	c-0.1,0.2-0.2,0.4-0.4,0.6c-0.2,0.2-0.4,0.4-0.6,0.6c-0.2-0.2-0.4-0.4-0.7-0.5c-0.2-0.1-0.5-0.3-0.9-0.4c-0.3-0.1-0.8-0.2-1.3-0.2
	c-0.9,0-1.5,0.3-1.9,0.9c-0.4,0.6-0.6,1.3-0.6,2.2c0,0.8,0.1,1.4,0.2,1.8c0.1,0.4,0.3,0.8,0.6,1c0.3,0.2,0.7,0.4,1.2,0.5
	c0.5,0.1,1.1,0.2,1.7,0.4c1.1,0.2,2.1,0.7,2.8,1.6c0.7,0.9,1.1,2.1,1.1,3.8c0,2.1-0.5,3.7-1.5,4.6c-1,0.9-2.5,1.4-4.5,1.4
	c-0.8,0-1.5-0.1-2-0.2c-0.5-0.2-1-0.3-1.3-0.6c-0.4-0.2-0.7-0.5-1-0.8c0.1-0.2,0.2-0.4,0.3-0.6c0.1-0.2,0.2-0.4,0.4-0.6
	c0.2-0.2,0.4-0.4,0.6-0.6c0.2,0.3,0.5,0.5,0.7,0.7c0.3,0.2,0.6,0.3,0.9,0.5c0.4,0.1,0.8,0.2,1.3,0.2c1.4,0,2.3-0.3,2.8-1
	c0.5-0.6,0.7-1.5,0.7-2.5c0-0.8-0.1-1.5-0.3-1.9c-0.2-0.5-0.4-0.8-0.7-1.1c-0.3-0.3-0.7-0.5-1.2-0.6c-0.5-0.1-1.1-0.2-1.7-0.4
	c-1.2-0.2-2.1-0.7-2.8-1.4c-0.6-0.7-0.9-2-0.9-3.7c0-2.1,0.4-3.6,1.2-4.4C30.8,10.9,32,10.5,33.6,10.5L33.6,10.5z M42.5,6.1l2.5-1
	v5.6h3.8c0,0.1,0,0.2,0,0.4c0,0.1,0,0.3,0,0.4c0,0.1,0,0.3,0,0.4c0,0.2,0,0.3,0,0.5c0,0.2,0,0.4-0.1,0.6H45v17.7c-0.2,0-0.4,0-0.5,0
	c-0.1,0-0.3,0-0.4,0c-0.1,0-0.3,0-0.4,0c-0.1,0-0.3,0-0.6,0c-0.2,0-0.5,0-0.6-0.1V6.1L42.5,6.1z M55,30.9c-1.7,0-2.9-0.4-3.6-1.3
	c-0.7-0.9-1-2.3-1-4.2c0-1.9,0.4-3.4,1.3-4.4c0.8-1,2.2-1.6,4.1-1.6l3.3-0.1v-3.8c0-0.9-0.2-1.6-0.7-2c-0.5-0.4-1.2-0.6-2-0.6
	c-0.6,0-1.2,0.1-1.7,0.2c-0.5,0.1-0.9,0.3-1.3,0.4c-0.4,0.2-0.8,0.4-1.1,0.6c-0.2-0.2-0.3-0.3-0.4-0.6c-0.1-0.2-0.2-0.4-0.3-0.7
	c-0.1-0.3-0.2-0.6-0.2-0.9c0.3-0.2,0.6-0.5,1.1-0.7c0.4-0.2,0.9-0.4,1.5-0.5c0.6-0.1,1.4-0.2,2.3-0.2c1.7,0,3,0.4,3.9,1.2
	c0.9,0.8,1.4,2.1,1.4,3.9v14.9c-0.6,0.1-1.3,0.1-2,0.2c-0.6,0.1-1.3,0.1-2.1,0.1C56.7,30.9,55.9,30.9,55,30.9L55,30.9z M55.2,28.6
	c1.3,0,2.3,0,3-0.1c0.3-0.1,0.6-0.1,0.9-0.2v-6.8l-3.2,0.1c-1.1,0.1-1.9,0.4-2.3,1c-0.4,0.6-0.6,1.5-0.6,2.7c0,0.5,0,0.9,0.1,1.3
	c0,0.4,0.1,0.7,0.3,1c0.1,0.3,0.4,0.5,0.7,0.7S54.7,28.6,55.2,28.6L55.2,28.6z M68.7,30.6c-0.1,0-0.2,0-0.4,0c-0.1,0-0.3,0-0.4,0
	c-0.1,0-0.3,0-0.5,0c-0.2,0-0.4,0-0.5,0c-0.1,0-0.3,0-0.4,0c-0.1,0-0.2,0-0.4,0V10.8c0.1,0,0.3,0,0.4,0c0.1,0,0.3,0,0.4,0
	c0.1,0,0.3,0,0.5,0c0.2,0,0.4,0,0.5,0c0.2,0,0.3,0,0.4,0c0.1,0,0.2,0,0.4,0V30.6L68.7,30.6z M67.5,6.1c-0.2,0-0.4,0-0.6,0
	c-0.2,0-0.3,0-0.4,0c-0.1,0-0.2,0-0.4,0c0-0.1,0-0.3,0-0.4c0-0.1,0-0.3,0-0.4c0-0.1,0-0.3,0-0.5c0-0.2,0-0.4,0-0.6
	c0-0.2,0-0.3,0-0.4c0-0.1,0-0.3,0-0.4c0.1,0,0.3,0,0.4,0c0.1,0,0.3,0,0.4,0c0.1,0,0.3,0,0.5,0c0.2,0,0.4,0,0.6,0c0.2,0,0.3,0,0.5,0
	c0.1,0,0.2,0,0.4,0c0,0.2,0,0.3,0,0.4c0,0.1,0,0.3,0,0.4c0,0.1,0,0.3,0,0.5c0,0.2,0,0.4,0,0.6c0,0.2,0,0.3,0,0.5c0,0.1,0,0.3,0,0.4
	c-0.1,0-0.2,0-0.4,0c-0.1,0-0.3,0-0.4,0C67.9,6.1,67.7,6.1,67.5,6.1L67.5,6.1z M78.3,10.5c0.3,0,0.5,0,0.8,0c0.3,0,0.5,0,0.7,0
	c0.3,0,0.5,0,0.7,0c0,0.1,0,0.2,0,0.3c0,0.1,0,0.2,0,0.4c0,0.1,0,0.3,0,0.4c0,0.2,0,0.4,0,0.5c0,0.1,0,0.3,0,0.4c0,0.1,0,0.3,0,0.4
	c-0.2,0-0.3,0-0.5,0c-0.2,0-0.3,0-0.5-0.1c-0.2,0-0.4,0-0.6,0c-0.3,0-0.6,0-0.8,0c-0.3,0-0.5,0-0.7,0.1c-0.3,0-0.5,0.1-0.7,0.1v17.6
	c-0.3,0.1-0.5,0.1-0.6,0.1s-0.4,0-0.6,0c-0.3,0-0.5,0-0.7,0c-0.2,0-0.4,0-0.6-0.1V10.8c0.3,0,0.7-0.1,1.2-0.1c0.4,0,0.8-0.1,1.3-0.1
	C77.1,10.6,77.7,10.5,78.3,10.5L78.3,10.5z M100.8,30.6c-0.2,0-0.4,0-0.6,0c-0.2,0-0.4,0-0.6,0c-0.2,0-0.4,0-0.5,0
	c-0.2,0-0.4,0-0.6,0c-0.2,0-0.5,0-0.7-0.1l-3.1-11.9c-0.2-0.7-0.4-1.4-0.5-2c-0.1-0.6-0.2-1.1-0.3-1.5c-0.1-0.5-0.2-0.9-0.2-1.3
	h-0.2c0,0.3-0.1,0.8-0.2,1.2c-0.1,0.4-0.1,0.9-0.3,1.5c-0.1,0.6-0.3,1.3-0.5,2.1l-3.1,11.9c-0.2,0-0.4,0-0.5,0c-0.2,0-0.3,0-0.5,0
	c-0.2,0-0.4,0-0.5,0c-0.2,0-0.4,0-0.7,0s-0.5,0-0.8-0.1L82.1,11c0.2-0.1,0.5-0.2,0.7-0.2c0.2-0.1,0.5-0.1,0.8-0.2
	c0.3-0.1,0.6-0.1,1-0.1l2.6,12.4c0.2,0.8,0.3,1.6,0.4,2.2c0.1,0.6,0.2,1.2,0.2,1.6c0.1,0.5,0.1,1,0.2,1.4h0.2
	c0.1-0.4,0.1-0.9,0.2-1.5c0.1-0.4,0.2-1,0.3-1.6c0.1-0.6,0.3-1.3,0.5-2.1l3.1-12.3c0.1,0,0.3,0,0.4,0c0.1,0,0.3,0,0.4-0.1
	c0.1,0,0.3,0,0.5,0c0.2,0,0.3,0,0.5,0c0.2,0,0.3,0,0.4,0c0.1,0,0.3,0,0.4,0L98.1,23c0.2,0.8,0.4,1.5,0.5,2.2
	c0.1,0.6,0.3,1.2,0.3,1.6c0.1,0.5,0.2,1,0.2,1.5h0.2c0-0.4,0.1-0.9,0.2-1.5c0.1-0.4,0.1-1,0.2-1.6c0.1-0.6,0.2-1.3,0.4-2l2.6-12.6
	c0.4,0,0.7,0,1.1,0.1c0.3,0.1,0.6,0.1,0.8,0.2c0.3,0.1,0.5,0.1,0.7,0.2L100.8,30.6L100.8,30.6z M111.4,30.9c-1.7,0-2.9-0.4-3.6-1.3
	c-0.7-0.9-1-2.3-1-4.2c0-1.9,0.4-3.4,1.3-4.4c0.8-1,2.2-1.6,4.1-1.6l3.3-0.1v-3.8c0-0.9-0.2-1.6-0.7-2c-0.5-0.4-1.2-0.6-2-0.6
	c-0.6,0-1.2,0.1-1.7,0.2c-0.5,0.1-0.9,0.3-1.3,0.4c-0.4,0.2-0.8,0.4-1.1,0.6c-0.2-0.2-0.3-0.3-0.4-0.6c-0.1-0.2-0.2-0.4-0.3-0.7
	c-0.1-0.3-0.2-0.6-0.2-0.9c0.3-0.2,0.6-0.5,1.1-0.7c0.4-0.2,0.9-0.4,1.5-0.5c0.6-0.1,1.4-0.2,2.3-0.2c1.7,0,3,0.4,3.9,1.2
	c0.9,0.8,1.4,2.1,1.4,3.9v14.9c-0.6,0.1-1.3,0.1-2,0.2c-0.6,0.1-1.3,0.1-2.1,0.1C113.1,30.9,112.3,30.9,111.4,30.9L111.4,30.9z
	 M111.6,28.6c1.3,0,2.3,0,3-0.1c0.3-0.1,0.6-0.1,0.9-0.2v-6.8l-3.2,0.1c-1.1,0.1-1.9,0.4-2.3,1c-0.4,0.6-0.6,1.5-0.6,2.7
	c0,0.5,0,0.9,0.1,1.3c0,0.4,0.1,0.7,0.3,1c0.1,0.3,0.4,0.5,0.7,0.7C110.7,28.5,111.1,28.6,111.6,28.6L111.6,28.6z M131.2,10.7
	c0.2-0.1,0.4-0.1,0.6-0.1c0.2,0,0.4,0,0.5,0c0.3,0,0.5,0,0.8,0c0.2,0,0.4,0,0.6,0.1v20.7c0,1.6-0.1,2.9-0.4,4
	c-0.2,1.1-0.6,2-1.1,2.7c-0.5,0.7-1.2,1.2-1.9,1.5c-0.8,0.3-1.7,0.5-2.7,0.5c-0.8,0-1.5-0.1-2.1-0.2c-0.6-0.1-1.1-0.3-1.5-0.5
	c-0.5-0.2-0.9-0.4-1.2-0.7c0.1-0.2,0.2-0.4,0.3-0.7c0.1-0.2,0.2-0.4,0.4-0.7c0.2-0.3,0.4-0.5,0.6-0.7c0.3,0.2,0.6,0.4,0.9,0.6
	c0.3,0.2,0.7,0.3,1.1,0.4c0.4,0.1,0.9,0.2,1.5,0.2c0.7,0,1.2-0.1,1.7-0.3c0.5-0.2,0.8-0.6,1.1-1.2c0.3-0.6,0.5-1.3,0.6-2.2
	c0.1-0.9,0.2-2.1,0.2-3.5l-2.2,0.1c-1.4,0.1-2.5,0-3.4-0.3c-0.8-0.3-1.5-0.7-2-1.3c-0.5-0.6-0.8-1.4-1-2.3c-0.2-0.9-0.3-2-0.3-3.3
	V10.7c0.2,0,0.3,0,0.5,0c0.1,0,0.3,0,0.4,0c0.2,0,0.3,0,0.5,0c0.2,0,0.3,0,0.5,0c0.2,0,0.4,0,0.6,0.1V24c0,0.8,0,1.4,0.1,2
	c0.1,0.6,0.3,1.1,0.6,1.4c0.3,0.4,0.7,0.6,1.2,0.8c0.5,0.2,1.2,0.2,2.1,0.2l2.2-0.1V10.7L131.2,10.7z"/>
<path class="st0" d="M145.1,10.5c0.8,0,1.4,0.1,1.9,0.2c0.5,0.1,1,0.3,1.3,0.5c0.4,0.2,0.7,0.4,0.9,0.7c-0.1,0.2-0.2,0.4-0.3,0.6
	c-0.1,0.2-0.2,0.4-0.4,0.6c-0.2,0.2-0.4,0.4-0.6,0.6c-0.2-0.2-0.4-0.4-0.7-0.5c-0.2-0.1-0.5-0.3-0.9-0.4c-0.3-0.1-0.8-0.2-1.3-0.2
	c-0.9,0-1.5,0.3-1.9,0.9c-0.4,0.6-0.6,1.3-0.6,2.2c0,0.8,0.1,1.4,0.2,1.8c0.1,0.4,0.3,0.8,0.6,1c0.3,0.2,0.7,0.4,1.2,0.5
	c0.5,0.1,1.1,0.2,1.7,0.4c1.1,0.2,2.1,0.7,2.8,1.6c0.7,0.9,1.1,2.1,1.1,3.8c0,2.1-0.5,3.7-1.5,4.6c-1,0.9-2.5,1.4-4.5,1.4
	c-0.8,0-1.5-0.1-2-0.2c-0.5-0.2-1-0.3-1.3-0.6c-0.4-0.2-0.7-0.5-1-0.8c0.1-0.2,0.2-0.4,0.3-0.6c0.1-0.2,0.2-0.4,0.4-0.6
	c0.2-0.2,0.4-0.4,0.6-0.6c0.2,0.3,0.5,0.5,0.7,0.7c0.3,0.2,0.6,0.3,0.9,0.5c0.4,0.1,0.8,0.2,1.3,0.2c1.4,0,2.3-0.3,2.8-1
	c0.5-0.6,0.7-1.5,0.7-2.5c0-0.8-0.1-1.5-0.3-1.9c-0.2-0.5-0.4-0.8-0.7-1.1c-0.3-0.3-0.7-0.5-1.2-0.6c-0.5-0.1-1.1-0.2-1.7-0.4
	c-1.2-0.2-2.1-0.7-2.8-1.4c-0.6-0.7-0.9-2-0.9-3.7c0-2.1,0.4-3.6,1.2-4.4C142.3,10.9,143.5,10.5,145.1,10.5L145.1,10.5z M166,20.7
	c0,3.4-0.5,5.9-1.5,7.6c-1,1.7-2.6,2.6-4.8,2.6c-2.2,0-3.7-0.9-4.8-2.6c-1-1.7-1.5-4.3-1.5-7.6v-0.8c0-1.5,0.1-2.8,0.3-3.9
	c0.2-1.2,0.5-2.1,1-3c0.5-0.8,1.1-1.4,1.9-1.9c0.8-0.4,1.8-0.7,3.1-0.7c1.3,0,2.3,0.2,3.1,0.7c0.8,0.4,1.5,1.1,1.9,1.9
	c0.5,0.8,0.8,1.8,1,3c0.2,1.2,0.3,2.5,0.3,3.9V20.7L166,20.7z M163.4,19.9c0-1.2-0.1-2.2-0.2-3.1c-0.1-0.9-0.3-1.6-0.6-2.2
	c-0.3-0.6-0.7-1-1.2-1.3c-0.5-0.3-1.1-0.4-1.9-0.4c-1.5,0-2.5,0.6-3,1.7c-0.5,1.2-0.7,2.9-0.7,5.3v0.8c0,1.2,0.1,2.3,0.2,3.2
	c0.1,1,0.3,1.8,0.6,2.5c0.3,0.7,0.7,1.2,1.2,1.6c0.5,0.4,1.1,0.6,1.9,0.6c0.8,0,1.4-0.2,1.9-0.6c0.5-0.4,0.9-0.9,1.2-1.6
	c0.3-0.7,0.5-1.5,0.6-2.5c0.1-1,0.2-2,0.2-3.2V19.9L163.4,19.9z M175.7,2.8c-1,0-1.8,0.2-2.4,0.6c-0.6,0.4-0.9,1-0.9,1.9v5.3h3.8
	c0,0.1,0,0.2,0,0.3c0,0.1,0,0.2,0,0.3c0,0.1,0,0.3,0,0.4c0,0.2,0,0.4,0,0.5c0,0.1,0,0.3,0,0.4c0,0.1,0,0.2,0,0.4h-3.8v17.7
	c-0.2,0-0.3,0-0.4,0c-0.1,0-0.3,0-0.4,0c-0.2,0-0.3,0-0.4,0c-0.2,0-0.4,0-0.6,0c-0.2,0-0.4,0-0.6-0.1V5.5c0-1,0.2-1.8,0.5-2.4
	c0.4-0.6,0.8-1.2,1.4-1.5c0.5-0.4,1.2-0.6,1.9-0.8c0.7-0.2,1.4-0.2,2.1-0.2c0.1,0,0.3,0,0.4,0c0.1,0,0.2,0,0.3,0h0.3
	c0,0.1,0,0.3,0,0.4c0,0.1,0,0.2,0,0.3c0,0.1,0,0.3,0,0.4c0,0.2,0,0.4,0,0.5c0,0.1,0,0.3,0,0.4c0,0.1,0,0.2,0,0.3H175.7L175.7,2.8z
	 M179,6.1l2.5-1v5.6h3.8c0,0.1,0,0.2,0,0.4c0,0.1,0,0.3,0,0.4c0,0.1,0,0.3,0,0.4c0,0.2,0,0.3,0,0.5c0,0.2,0,0.4-0.1,0.6h-3.8v17.7
	c-0.2,0-0.4,0-0.5,0c-0.1,0-0.3,0-0.4,0c-0.1,0-0.3,0-0.4,0c-0.1,0-0.3,0-0.6,0c-0.2,0-0.5,0-0.6-0.1V6.1L179,6.1z"/>
<polygon class="st0" points="20.4,11.3 14.3,37.7 14.6,37.7 20.7,11.3 20.4,11.3 "/>
<polygon class="st0" points="18.5,11.3 12.3,37.7 12,37.7 18.2,11.3 18.5,11.3 "/>
<polygon class="st0" points="10.3,10.5 4,37.7 3.7,37.7 10,10.5 10.3,10.5 "/>
<polygon class="st0" points="12.3,10.5 6,37.7 6.3,37.7 12.6,10.5 12.3,10.5 "/>
<polygon class="st0" points="1.7,30.3 21.8,30.3 21.8,30.6 1.7,30.6 1.7,30.3 "/>
<polygon class="st0" points="1.7,28.4 22.2,28.4 22.2,28.1 1.7,28.1 1.7,28.4 "/>
<polygon class="st0" points="2.8,17.8 24.1,17.8 24.2,17.5 2.8,17.5 2.8,17.8 "/>
<polygon class="st0" points="2.4,19.8 23.8,19.8 23.7,20.1 2.4,20.1 2.4,19.8 "/>
<path class="st1" d="M0.5,30.1l0.4-1.8c0-0.2,0.2-0.3,0.4-0.3h3.3h1h0.1c0.2,0,0.3-0.1,0.4-0.3l0-0.1l0,0l2.3-9.9
	c0.1-0.2,0.2-0.3,0.4-0.3h6.6h1h0.1c0.2,0,0.3-0.1,0.4-0.3l0.2-0.7l1.3-5.7c0-0.2,0.2-0.3,0.4-0.3h1.8c0.3,0,0.5,0.2,0.4,0.5l-2,8.7
	c0,0.3-0.2,0.4-0.5,0.4h-6.8h-0.9h-0.1c-0.2,0-0.3,0.1-0.4,0.3l0,0L8,30.2c-0.1,0.3-0.2,0.4-0.4,0.4H1C0.6,30.7,0.4,30.4,0.5,30.1
	L0.5,30.1z"/>
</svg>
