<?xml version="1.0" encoding="utf-8"?>
<!-- Generator: Adobe Illustrator 22.0.1, SVG Export Plug-In . SVG Version: 6.00 Build 0)  -->
<svg version="1.1" id="Layer_1" xmlns="http://www.w3.org/2000/svg" xmlns:xlink="http://www.w3.org/1999/xlink" x="0px" y="0px"
	 viewBox="0 0 17 17" style="enable-background:new 0 0 17 17;" xml:space="preserve">
<style type="text/css">
	.st0{fill:#FFFFFF;}
</style>
<path class="st0" d="M11.6,9.8l-1.1,1.1l0.3,1.5c0,0.2-0.1,0.4-0.2,0.6c-0.1,0.1-0.2,0.1-0.3,0.1c-0.1,0-0.2,0-0.3-0.1l-1.4-0.7
	l-1.4,0.7c-0.2,0.1-0.4,0.1-0.6,0c-0.2-0.1-0.3-0.3-0.2-0.6l0.3-1.5L5.4,9.8C5.2,9.7,5.2,9.5,5.2,9.3c0.1-0.2,0.2-0.4,0.5-0.4
	l1.6-0.2L8,7.2c0.1-0.2,0.3-0.3,0.5-0.3c0.2,0,0.4,0.1,0.5,0.3l0.7,1.4l1.6,0.2c0.2,0,0.4,0.2,0.5,0.4C11.8,9.5,11.8,9.7,11.6,9.8
	L11.6,9.8z M15.3,17H1.7C0.8,17,0,16.2,0,15.3V3.5c0-0.9,0.8-1.7,1.7-1.7h1.8v-1C3.5,0.4,3.9,0,4.3,0h0.1c0.5,0,0.8,0.4,0.8,0.8v1
	h6.4v-1c0-0.5,0.4-0.8,0.8-0.8h0.1c0.5,0,0.8,0.4,0.8,0.8v1h1.8c0.9,0,1.7,0.8,1.7,1.7v11.8C17,16.2,16.2,17,15.3,17L15.3,17z
	 M15.1,5.9H1.9v9.2h13.1V5.9L15.1,5.9z"/>
</svg>
