<?xml version="1.0" encoding="utf-8"?>
<!-- Generator: Adobe Illustrator 22.0.1, SVG Export Plug-In . SVG Version: 6.00 Build 0)  -->
<svg version="1.1" id="Layer_1" xmlns="http://www.w3.org/2000/svg" xmlns:xlink="http://www.w3.org/1999/xlink" x="0px" y="0px"
	 viewBox="0 0 20 14" style="enable-background:new 0 0 20 14;" xml:space="preserve">
<style type="text/css">
	.st0{fill:#432671;}
</style>
<path class="st0" d="M19.7,6.3l-6-6.1c-0.4-0.4-1-0.4-1.3,0c-0.4,0.4-0.4,1,0,1.3l4.4,4.4H0.9C0.4,6.1,0,6.5,0,7
	c0,0.5,0.4,0.9,0.9,0.9h15.9l-4.4,4.4c-0.4,0.4-0.4,1,0,1.3c0.2,0.2,0.4,0.3,0.7,0.3s0.5-0.1,0.7-0.3l6-6.1
	C20.1,7.3,20.1,6.7,19.7,6.3L19.7,6.3z"/>
</svg>
