<?xml version="1.0" encoding="utf-8"?>
<!-- Generator: Adobe Illustrator 22.0.1, SVG Export Plug-In . SVG Version: 6.00 Build 0)  -->
<svg version="1.1" id="Layer_1" xmlns="http://www.w3.org/2000/svg" xmlns:xlink="http://www.w3.org/1999/xlink" x="0px" y="0px"
	 viewBox="0 0 25 25" style="enable-background:new 0 0 25 25;" xml:space="preserve">
<style type="text/css">
	.st0{fill:#687482;}
</style>
<path class="st0" d="M15.3,12.3c-0.3-0.2-0.7-0.4-1.1-0.5c-0.4-0.1-0.9-0.3-1.4-0.4c-0.4-0.1-0.7-0.2-0.9-0.2
	c-0.2,0-0.3-0.1-0.5-0.2c-0.2-0.1-0.3-0.2-0.4-0.3c-0.1-0.1-0.1-0.2-0.1-0.4c0-0.2,0.1-0.5,0.4-0.6c0.3-0.2,0.6-0.3,1.1-0.3
	c0.5,0,0.9,0.1,1.1,0.3c0.2,0.2,0.4,0.4,0.6,0.7c0.1,0.2,0.3,0.4,0.4,0.5c0.1,0.1,0.3,0.2,0.6,0.2c0.3,0,0.5-0.1,0.7-0.3
	c0.2-0.2,0.3-0.4,0.3-0.6c0-0.2-0.1-0.5-0.2-0.8c-0.1-0.3-0.3-0.5-0.6-0.7c-0.3-0.2-0.6-0.4-1.1-0.5c-0.4-0.1-0.9-0.2-1.5-0.2
	c-0.7,0-1.3,0.1-1.9,0.3c-0.5,0.2-1,0.5-1.2,0.9C9.1,9.5,9,10,9,10.5c0,0.5,0.1,1,0.4,1.3c0.3,0.3,0.6,0.6,1.1,0.8
	c0.4,0.2,1,0.4,1.7,0.5c0.5,0.1,0.9,0.2,1.2,0.3c0.3,0.1,0.5,0.2,0.7,0.4c0.2,0.2,0.2,0.4,0.2,0.6c0,0.3-0.2,0.6-0.5,0.8
	c-0.3,0.2-0.8,0.3-1.3,0.3c-0.4,0-0.7-0.1-0.9-0.2c-0.2-0.1-0.4-0.3-0.5-0.4c-0.1-0.2-0.3-0.4-0.4-0.7c-0.1-0.2-0.2-0.4-0.4-0.6
	c-0.2-0.1-0.3-0.2-0.6-0.2c-0.3,0-0.5,0.1-0.7,0.3c-0.2,0.2-0.3,0.4-0.3,0.6c0,0.4,0.1,0.8,0.4,1.2c0.3,0.4,0.6,0.7,1.1,1
	c0.6,0.3,1.4,0.5,2.3,0.5c0.8,0,1.4-0.1,2-0.4c0.6-0.2,1-0.6,1.3-1c0.3-0.4,0.4-0.9,0.4-1.5c0-0.5-0.1-0.8-0.3-1.2
	C15.9,12.8,15.6,12.5,15.3,12.3L15.3,12.3z M12.5,0C5.6,0,0,5.6,0,12.5C0,19.4,5.6,25,12.5,25C19.4,25,25,19.4,25,12.5
	C25,5.6,19.4,0,12.5,0L12.5,0z M15.5,19.5c-0.6,0-1.2-0.2-1.8-0.5c-0.4,0.1-0.8,0.1-1.2,0.1c-3.5,0-6.4-2.9-6.4-6.6
	c0-0.5,0-0.9,0.1-1.3C6,10.7,5.8,10,5.8,9.3c0-2.1,1.7-3.8,3.7-3.8c0.7,0,1.4,0.2,2,0.6C11.8,6,12.2,6,12.6,6c3.5,0,6.4,2.9,6.4,6.6
	c0,0.5-0.1,1-0.1,1.4c0.2,0.5,0.4,1.1,0.4,1.7C19.2,17.8,17.5,19.5,15.5,19.5L15.5,19.5z"/>
</svg>
