<?xml version="1.0" encoding="utf-8"?>
<!-- Generator: Adobe Illustrator 22.0.1, SVG Export Plug-In . SVG Version: 6.00 Build 0)  -->
<svg version="1.1" id="Layer_1" xmlns="http://www.w3.org/2000/svg" xmlns:xlink="http://www.w3.org/1999/xlink" x="0px" y="0px"
	 viewBox="0 0 38 45" style="enable-background:new 0 0 38 45;" xml:space="preserve">
<style type="text/css">
	.st0{fill:#432671;}
</style>
<path class="st0" d="M35,34.4c-1.6,2.2-3.7,4.2-6.4,6c-4.6,3.1-9.1,4.5-9.3,4.6c-0.1,0-0.2,0-0.3,0c-0.1,0-0.2,0-0.3,0
	c-0.2-0.1-4.7-1.5-9.3-4.6c-2.7-1.8-4.9-3.8-6.4-6c-2-2.8-3-5.7-3-8.9v-19c0-0.5,0.4-1,1-1c5.8-0.4,11.7-2.2,17.5-5.4
	c0.3-0.2,0.7-0.2,1,0c5.9,3.2,11.8,5,17.5,5.4c0.5,0,1,0.5,1,1v19C38,28.6,37,31.6,35,34.4L35,34.4z M35.9,7.4
	C30.3,6.9,24.7,5.2,19,2.1c-5.7,3-11.3,4.8-16.9,5.3v18.1c0,5,2.9,9.4,8.5,13.3c3.6,2.5,7.3,3.8,8.4,4.2c1.1-0.4,4.8-1.8,8.4-4.2
	c5.6-3.8,8.5-8.3,8.5-13.2V7.4L35.9,7.4z M22.4,23.6c0.1,0.9,0.3,1.7,0.4,2.6c0.3,1.7,0.6,3.5,0.8,5.3c0,0.3-0.1,0.6-0.3,0.8
	c-0.2,0.2-0.5,0.3-0.8,0.3h-7.2c-0.3,0-0.6-0.1-0.8-0.3c-0.2-0.2-0.3-0.5-0.3-0.8c0.2-1.8,0.5-3.6,0.8-5.3c0.1-0.8,0.3-1.7,0.4-2.6
	c-1.7-1.1-2.8-3-2.8-5c0-3.3,2.8-6,6.2-6c3.4,0,6.2,2.7,6.2,6C25.2,20.7,24.1,22.5,22.4,23.6L22.4,23.6z M19,14.6
	c-2.3,0-4.1,1.8-4.1,4c0,1.5,0.9,2.9,2.3,3.6c0.4,0.2,0.6,0.6,0.6,1c-0.2,1.1-0.3,2.2-0.5,3.3c-0.2,1.3-0.5,2.7-0.6,4.1h4.9
	c-0.2-1.4-0.4-2.7-0.6-4.1c-0.2-1.1-0.4-2.2-0.5-3.3c-0.1-0.4,0.2-0.8,0.6-1c1.4-0.7,2.3-2.1,2.3-3.6C23.1,16.4,21.3,14.6,19,14.6
	L19,14.6z M29.6,34.4c-0.4,0.4-1.1,0.4-1.5,0c-0.4-0.4-0.4-1,0-1.4c2.4-2.3,3.7-4.9,3.7-7.5V10.9c-4.3-0.8-8.6-2.2-12.8-4.3
	c-4.3,2.1-8.6,3.5-12.8,4.3v14.6c0,3.6,2.2,6.9,6.6,9.9c2.4,1.6,4.8,2.7,6.2,3.3c0.7-0.3,1.7-0.7,2.7-1.2c0.5-0.3,1.1-0.1,1.4,0.4
	c0.3,0.5,0.1,1.1-0.4,1.3c-1.3,0.7-2.5,1.2-3.3,1.5c-0.1,0-0.3,0.1-0.4,0.1c-0.1,0-0.3,0-0.4-0.1c-1.4-0.6-4.3-1.8-7-3.7
	c-5-3.4-7.5-7.3-7.5-11.5V10.1c0-0.5,0.4-0.9,0.9-1C9.5,8.4,14,6.9,18.5,4.6c0.3-0.1,0.6-0.1,0.9,0C24,6.9,28.5,8.4,33,9.1
	c0.5,0.1,0.9,0.5,0.9,1v15.4C33.9,28.7,32.5,31.7,29.6,34.4L29.6,34.4z M26.5,36.9c0,0-0.1,0.1-0.1,0.1c-0.2,0.2-0.5,0.3-0.7,0.3
	c-0.3,0-0.5-0.1-0.7-0.3c-0.4-0.4-0.4-1,0-1.4c0,0,0.1-0.1,0.1-0.1c0.4-0.4,1-0.4,1.5,0C26.9,35.9,26.9,36.5,26.5,36.9L26.5,36.9z"
	/>
</svg>
