<?xml version="1.0" encoding="utf-8"?>
<!-- Generator: Adobe Illustrator 22.0.1, SVG Export Plug-In . SVG Version: 6.00 Build 0)  -->
<svg version="1.1" id="Layer_1" xmlns="http://www.w3.org/2000/svg" xmlns:xlink="http://www.w3.org/1999/xlink" x="0px" y="0px"
	 viewBox="0 0 40 54" style="enable-background:new 0 0 40 54;" xml:space="preserve">
<style type="text/css">
	.st0{fill:#432671;}
</style>
<path class="st0" d="M31.4,50.5C28,52.8,24.1,54,20,54c0,0,0,0,0,0c-6.6,0-12.7-3.2-16.5-8.6c-3-4.4-4.2-9.7-3.2-15
	c0.8-4.5,3.1-8.4,6.4-11.4l-1.4-2.2c-0.9-1.5-0.5-3.4,1-4.3c1.5-0.9,3.4-0.5,4.3,1l1.4,2.2c1.4-0.6,2.8-1,4.3-1.3v-1.4
	C14.3,11.6,13,9.4,13,7c0-3.9,3.1-7,7-7c3.8,0,7,3.1,7,7c0,2.4-1.2,4.7-3.3,5.9v1.4c5.1,1,9.8,3.9,12.8,8.3
	C42.7,31.7,40.4,44.2,31.4,50.5L31.4,50.5z M8.9,14.5c-0.2-0.2-0.4-0.4-0.7-0.5c-0.3-0.1-0.6,0-0.8,0.1c-0.5,0.3-0.7,1-0.3,1.5
	l1.3,2c0.1-0.1,0.2-0.1,0.3-0.2c0.5-0.3,1-0.7,1.5-1L8.9,14.5L8.9,14.5z M24.9,7C24.9,4.3,22.7,2,20,2c-2.7,0-4.9,2.2-4.9,4.9
	c0,1.3,0.5,2.4,1.3,3.3C16.5,8.4,18.1,7,20,7c1.9,0,3.5,1.5,3.7,3.3C24.5,9.4,24.9,8.2,24.9,7L24.9,7z M18.4,10.6V14
	c0.5,0,1.1-0.1,1.6-0.1c0.6,0,1.1,0,1.7,0.1v-3.4C21.7,9.7,20.9,9,20,9C19.1,9,18.4,9.7,18.4,10.6L18.4,10.6z M34.8,23.8
	C31.4,18.9,25.9,16,20,16c-3.7,0-7.2,1.1-10.2,3.2C5.9,21.9,3.2,26,2.3,30.7c-0.9,4.7,0.2,9.5,2.9,13.5C8.6,49.1,14.1,52,20,52
	c0,0,0,0,0,0c3.6,0,7.2-1.1,10.2-3.2C38.4,43.1,40.4,31.9,34.8,23.8L34.8,23.8z M35.9,36.9c-1.4,7.7-8.1,13.2-15.9,13.2c0,0,0,0,0,0
	c-1,0-2-0.1-2.9-0.3c-8.8-1.6-14.6-10-13-18.8c1.4-7.7,8.1-13.2,15.9-13.2c1,0,2,0.1,2.9,0.3c4.2,0.8,7.9,3.2,10.4,6.7
	C35.7,28.3,36.7,32.6,35.9,36.9L35.9,36.9z M31.6,26c-2.1-3.1-5.4-5.2-9.1-5.9c-0.8-0.2-1.7-0.2-2.6-0.2c-6.8,0-12.6,4.9-13.8,11.6
	c-1.4,7.7,3.7,15,11.3,16.4c0.8,0.2,1.7,0.2,2.6,0.2c6.8,0,12.6-4.9,13.8-11.6C34.6,32.8,33.7,29.1,31.6,26L31.6,26z M22.7,34.5
	c-0.2,1.3-1.4,2.2-2.7,2.2c-0.2,0-0.3,0-0.5,0c-1.5-0.3-2.5-1.7-2.2-3.2c0.2-0.9,0.8-1.7,1.6-2v-8.9c0-0.6,0.5-1,1-1
	c0.6,0,1,0.5,1,1v8.9C22.2,31.9,22.9,33.2,22.7,34.5L22.7,34.5z M20.1,33.3c0,0-0.1,0-0.1,0c-0.3,0-0.6,0.2-0.7,0.6
	c-0.1,0.4,0.2,0.7,0.5,0.8c0.4,0.1,0.7-0.2,0.8-0.5C20.7,33.7,20.5,33.4,20.1,33.3L20.1,33.3z M32.2,35h-2.1c-0.6,0-1-0.5-1-1
	s0.5-1,1-1h2.1c0.6,0,1,0.5,1,1S32.7,35,32.2,35L32.2,35z M9.9,35H7.9c-0.6,0-1-0.5-1-1s0.5-1,1-1h2.1c0.6,0,1,0.5,1,1
	S10.5,35,9.9,35L9.9,35z M20,47.2c-0.6,0-1-0.5-1-1v-2.1c0-0.6,0.5-1,1-1c0.6,0,1,0.5,1,1v2.1C21,46.7,20.6,47.2,20,47.2L20,47.2z"
	/>
</svg>
