<?xml version="1.0" encoding="utf-8"?>
<!-- Generator: Adobe Illustrator 22.0.1, SVG Export Plug-In . SVG Version: 6.00 Build 0)  -->
<svg version="1.1" id="Layer_1" xmlns="http://www.w3.org/2000/svg" xmlns:xlink="http://www.w3.org/1999/xlink" x="0px" y="0px"
	 viewBox="0 0 22 22" style="enable-background:new 0 0 22 22;" xml:space="preserve">
<style type="text/css">
	.st0{fill:#909090;}
</style>
<path class="st0" d="M15,12.7l-1.5,1.4l0.3,2c0,0.3-0.1,0.6-0.3,0.7C13.5,17,13.3,17,13.2,17c-0.1,0-0.2,0-0.3-0.1L11,16l-1.8,0.9
	c-0.2,0.1-0.6,0.1-0.8-0.1c-0.2-0.2-0.3-0.4-0.3-0.7l0.3-2L7,12.7c-0.2-0.2-0.3-0.5-0.2-0.7c0.1-0.3,0.3-0.5,0.6-0.5l2-0.3l0.9-1.8
	C10.5,9.1,10.7,9,11,9s0.5,0.2,0.7,0.4l0.9,1.8l2,0.3c0.3,0,0.5,0.2,0.6,0.5C15.3,12.3,15.2,12.5,15,12.7L15,12.7z M19.8,22H2.2
	C1,22,0,21,0,19.8V4.5c0-1.2,1-2.2,2.2-2.2h2.3V1.1C4.5,0.5,5,0,5.6,0h0.2c0.6,0,1.1,0.5,1.1,1.1v1.3h8.2V1.1c0-0.6,0.5-1.1,1.1-1.1
	h0.2c0.6,0,1.1,0.5,1.1,1.1v1.3h2.3c1.2,0,2.2,1,2.2,2.2v15.3C22,21,21,22,19.8,22L19.8,22z M19.5,7.6h-17v11.9h17V7.6L19.5,7.6z"/>
</svg>
