<?xml version="1.0" encoding="utf-8"?>
<!-- Generator: Adobe Illustrator 22.0.1, SVG Export Plug-In . SVG Version: 6.00 Build 0)  -->
<svg version="1.1" id="Layer_1" xmlns="http://www.w3.org/2000/svg" xmlns:xlink="http://www.w3.org/1999/xlink" x="0px" y="0px"
	 viewBox="0 0 49 49" style="enable-background:new 0 0 49 49;" xml:space="preserve">
<style type="text/css">
	.st0{fill:#432671;}
</style>
<path class="st0" d="M45.2,49H3.8C1.7,49,0,47.3,0,45.2V18c0-2.1,1.7-3.8,3.8-3.8h16.5c0.3-1.4,1.3-2.6,2.7-3.1l-5.6-9.6
	c-0.3-0.5-0.1-1,0.3-1.3c0.5-0.3,1-0.1,1.3,0.3l5.4,9.3l5.4-9.3c0.3-0.5,0.8-0.6,1.3-0.3c0.5,0.3,0.6,0.8,0.3,1.3L26,11
	c1.4,0.5,2.4,1.7,2.7,3.1h16.5c2.1,0,3.8,1.7,3.8,3.8v27.2C49,47.3,47.3,49,45.2,49L45.2,49z M24.5,12.7c-1,0-1.8,0.6-2.2,1.5h4.4
	C26.4,13.3,25.5,12.7,24.5,12.7L24.5,12.7z M47.1,18c0-1.1-0.9-1.9-1.9-1.9H3.8c-1.1,0-1.9,0.9-1.9,1.9v27.2c0,1.1,0.9,1.9,1.9,1.9
	h41.3c1.1,0,1.9-0.9,1.9-1.9V18L47.1,18z M41.9,24.5c-1.6,0-2.9-1.3-2.9-2.9c0-1.6,1.3-2.9,2.9-2.9s2.9,1.3,2.9,2.9
	C44.8,23.2,43.5,24.5,41.9,24.5L41.9,24.5z M41.9,20.7c-0.5,0-1,0.4-1,1c0,0.5,0.4,1,1,1c0.5,0,1-0.4,1-1
	C42.9,21.1,42.4,20.7,41.9,20.7L41.9,20.7z M41.9,32.5c-1.6,0-2.9-1.3-2.9-2.9c0-1.6,1.3-2.9,2.9-2.9s2.9,1.3,2.9,2.9
	C44.8,31.3,43.5,32.5,41.9,32.5L41.9,32.5z M41.9,28.7c-0.5,0-1,0.4-1,1c0,0.5,0.4,1,1,1c0.5,0,1-0.4,1-1
	C42.9,29.1,42.4,28.7,41.9,28.7L41.9,28.7z M41.9,40.6c-1.6,0-2.9-1.3-2.9-2.9s1.3-2.9,2.9-2.9s2.9,1.3,2.9,2.9S43.5,40.6,41.9,40.6
	L41.9,40.6z M41.9,36.8c-0.5,0-1,0.4-1,1c0,0.5,0.4,1,1,1c0.5,0,1-0.4,1-1C42.9,37.2,42.4,36.8,41.9,36.8L41.9,36.8z M17,28.3h-1.8
	v7.5c0,0.5-0.4,1-1,1c-0.5,0-1-0.4-1-1v-7.5h-1.9c-0.5,0-1-0.4-1-1s0.4-1,1-1H17c0.5,0,1,0.4,1,1S17.5,28.3,17,28.3L17,28.3z
	 M30.5,27.8l-4.1,8.4c-0.2,0.3-0.5,0.5-0.9,0.5c-0.4,0-0.7-0.2-0.9-0.5l-4.1-8.4c-0.2-0.5,0-1,0.4-1.3c0.5-0.2,1,0,1.3,0.4l3.2,6.6
	l3.2-6.6c0.2-0.5,0.8-0.7,1.3-0.4C30.5,26.7,30.7,27.3,30.5,27.8L30.5,27.8z M35,44H5.9c-0.5,0-1-0.4-1-1v-23c0-0.5,0.4-1,1-1h10.5
	c0.5,0,1,0.4,1,1c0,0.5-0.4,1-1,1H6.9v17.2h7.4c0.5,0,1,0.4,1,1c0,0.5-0.4,1-1,1H6.9v1.9h27.2V21.1h-9.6c-0.5,0-1-0.4-1-1
	c0-0.5,0.4-1,1-1H35c0.5,0,1,0.4,1,1v23C36,43.6,35.6,44,35,44L35,44z M18.6,39.9c-0.2,0.2-0.4,0.3-0.7,0.3c-0.3,0-0.5-0.1-0.7-0.3
	c-0.2-0.2-0.3-0.4-0.3-0.7c0-0.3,0.1-0.5,0.3-0.7c0.2-0.2,0.4-0.3,0.7-0.3c0.3,0,0.5,0.1,0.7,0.3c0.2,0.2,0.3,0.4,0.3,0.7
	C18.9,39.5,18.8,39.7,18.6,39.9L18.6,39.9z M21.2,20.8c-0.2,0.2-0.4,0.3-0.7,0.3c-0.3,0-0.5-0.1-0.7-0.3c-0.2-0.2-0.3-0.4-0.3-0.7
	c0-0.3,0.1-0.5,0.3-0.7c0.2-0.2,0.4-0.3,0.7-0.3c0.3,0,0.5,0.1,0.7,0.3c0.2,0.2,0.3,0.4,0.3,0.7C21.4,20.4,21.3,20.6,21.2,20.8
	L21.2,20.8z"/>
</svg>
