<?xml version="1.0" encoding="utf-8"?>
<!-- Generator: Adobe Illustrator 22.0.1, SVG Export Plug-In . SVG Version: 6.00 Build 0)  -->
<svg version="1.1" id="Layer_1" xmlns="http://www.w3.org/2000/svg" xmlns:xlink="http://www.w3.org/1999/xlink" x="0px" y="0px"
	 viewBox="0 0 16 16" style="enable-background:new 0 0 16 16;" xml:space="preserve">
<style type="text/css">
	.st0{fill:#FFFFFF;}
</style>
<path class="st0" d="M13.9,6L13.9,6l-0.4-0.8l0-0.1c0.9-2.1,0.8-2.1,0.7-2.3L13,1.7c0-0.1-0.1-0.1-0.2-0.1c-0.1,0-0.3,0-2,0.8
	l-0.1,0L10,2.2l0-0.1C9.1,0,9,0,8.8,0H7.1C6.9,0,6.8,0,6,2.1l0,0.1L5.3,2.5l-0.1,0C4,1.9,3.3,1.7,3.1,1.7c-0.1,0-0.2,0-0.2,0.1
	L1.7,3C1.6,3.1,1.5,3.2,2.4,5.2l0,0.1L2.2,6l-0.1,0C0,6.9,0,7,0,7.2v1.7C0,9.1,0,9.2,2.1,10l0.1,0l0.3,0.7l0,0.1
	c-0.9,2.1-0.8,2.1-0.7,2.3L3,14.3c0.1,0.1,0.1,0.1,0.2,0.1c0.1,0,0.3,0,2-0.8l0.1,0L6,13.8l0,0.1C6.9,16,7,16,7.2,16h1.7
	c0.2,0,0.3,0,1.1-2.1l0-0.1l0.7-0.3l0.1,0c1.2,0.5,1.9,0.8,2.1,0.8c0.1,0,0.2,0,0.2-0.1l1.2-1.2c0.2-0.2,0.2-0.2-0.7-2.3l0-0.1
	l0.3-0.7l0.1,0C16,9.1,16,9,16,8.8V7.1C16,6.9,16,6.8,13.9,6L13.9,6z M8,10.8c-1.5,0-2.8-1.2-2.8-2.8c0-1.5,1.2-2.8,2.8-2.8
	c1.5,0,2.7,1.2,2.7,2.8C10.7,9.5,9.5,10.8,8,10.8L8,10.8z"/>
</svg>
