<?xml version="1.0" encoding="utf-8"?>
<!-- Generator: Adobe Illustrator 22.0.1, SVG Export Plug-In . SVG Version: 6.00 Build 0)  -->
<svg version="1.1" id="Layer_1" xmlns="http://www.w3.org/2000/svg" xmlns:xlink="http://www.w3.org/1999/xlink" x="0px" y="0px"
	 viewBox="0 0 49 49" style="enable-background:new 0 0 49 49;" xml:space="preserve">
<style type="text/css">
	.st0{fill:#432671;}
</style>
<path class="st0" d="M48.7,11.8l-5,5c-0.2,0.2-0.4,0.3-0.7,0.3H28.1v19.2c1.6-0.9,3.4-1.4,5.3-1.4c5.7,0,10.4,4.7,10.4,10.4
	c0,1-0.2,2.1-0.5,3.1c-0.1,0.4-0.5,0.7-0.9,0.7c-0.1,0-0.2,0-0.3,0c-0.5-0.2-0.8-0.7-0.6-1.2c0.3-0.8,0.4-1.7,0.4-2.5
	c0-4.7-3.8-8.5-8.5-8.5c-1.9,0-3.8,0.7-5.3,1.8v4.7h5.2c2.2,0,3.9,1.8,3.9,3.9V48c0,0.5-0.4,1-1,1H1c-0.5,0-1-0.4-1-1
	c0-3.2,2.6-5.9,5.9-5.9c0.6,0,1.3,0.1,1.9,0.3c1.3-2.8,4.2-4.6,7.3-4.6c2.2,0,4.3,0.9,5.8,2.4v-5.6H5.9c-0.3,0-0.5-0.1-0.7-0.3l-5-5
	c-0.4-0.4-0.4-1,0-1.4l5-5c0.2-0.2,0.4-0.3,0.7-0.3h4.8c0.5,0,1,0.4,1,1c0,0.5-0.4,1-1,1H6.3l-4,4l4,4h19.9v-8h-7.6
	c-0.5,0-1-0.4-1-1c0-0.5,0.4-1,1-1h2.2V3.6c0-2,1.6-3.6,3.6-3.6c2,0,3.6,1.6,3.6,3.6v1.5h14.9c0.3,0,0.5,0.1,0.7,0.3l5,5
	C49.1,10.8,49.1,11.4,48.7,11.8L48.7,11.8z M15.1,39.8c-2.7,0-5,1.7-5.9,4.2c-0.1,0.3-0.3,0.5-0.6,0.6c-0.3,0.1-0.6,0.1-0.8-0.1
	c-0.6-0.3-1.3-0.5-1.9-0.5c-1.9,0-3.4,1.3-3.9,3h9.7c0-2.1,1.8-3.8,3.9-3.8h5C19.6,41.1,17.5,39.8,15.1,39.8L15.1,39.8z M15.7,45.2
	c-1.1,0-2,0.9-2,1.9h21.6c0-1.1-0.9-1.9-2-1.9H15.7L15.7,45.2z M22.8,34.6v8.6h3.4v-8.6H22.8L22.8,34.6z M22.8,22.8h3.4V17h-3.4
	V22.8L22.8,22.8z M26.2,3.6c0-0.9-0.8-1.7-1.7-1.7s-1.7,0.8-1.7,1.7v1.5h3.4V3.6L26.2,3.6z M42.7,7.1H22.8v4h11.5c0.5,0,1,0.4,1,1
	c0,0.5-0.4,1-1,1H22.8v2.1h19.9l4-4L42.7,7.1L42.7,7.1z M15.3,24.4c-0.2,0.2-0.4,0.3-0.7,0.3c-0.3,0-0.5-0.1-0.7-0.3
	c-0.2-0.2-0.3-0.4-0.3-0.7s0.1-0.5,0.3-0.7c0.2-0.2,0.4-0.3,0.7-0.3c0.3,0,0.5,0.1,0.7,0.3c0.2,0.2,0.3,0.4,0.3,0.7
	S15.4,24.2,15.3,24.4L15.3,24.4z M39.1,12.7C39,12.9,38.7,13,38.5,13c-0.3,0-0.5-0.1-0.7-0.3c-0.2-0.2-0.3-0.4-0.3-0.7
	c0-0.3,0.1-0.5,0.3-0.7c0.2-0.2,0.4-0.3,0.7-0.3c0.3,0,0.5,0.1,0.7,0.3c0.2,0.2,0.3,0.4,0.3,0.7C39.4,12.3,39.3,12.6,39.1,12.7
	L39.1,12.7z M21.8,31.2h-8.8c-0.5,0-1-0.4-1-1c0-0.5,0.4-1,1-1h8.8c0.5,0,1,0.4,1,1C22.8,30.8,22.3,31.2,21.8,31.2L21.8,31.2z"/>
</svg>
