<?xml version="1.0" encoding="utf-8"?>
<!-- Generator: Adobe Illustrator 22.0.1, SVG Export Plug-In . SVG Version: 6.00 Build 0)  -->
<svg version="1.1" id="Layer_1" xmlns="http://www.w3.org/2000/svg" xmlns:xlink="http://www.w3.org/1999/xlink" x="0px" y="0px"
	 viewBox="0 0 20 20" style="enable-background:new 0 0 20 20;" xml:space="preserve">
<style type="text/css">
	.st0{fill:#909090;}
</style>
<path class="st0" d="M9.1,13.3v-1.8h1.8v1.8H9.1L9.1,13.3z M19.1,7.9l-0.9,0.2l-6.5,1.6H8.3L1.8,8.1L0.9,7.9L0,7.6V4.5
	C0,4,0.4,3.6,0.9,3.6h5.2V0.9C6.1,0.4,6.5,0,7,0H13c0.5,0,0.9,0.4,0.9,0.9v2.7h5.2C19.6,3.6,20,4,20,4.5v3.1L19.1,7.9L19.1,7.9z
	 M12.1,1.8H7.9v1.8h4.2V1.8L12.1,1.8z M19.1,20H0.9C0.4,20,0,19.6,0,19.1V9.5l0.9,0.2L1.8,10l5.5,1.4v2.9c0,0.5,0.4,0.9,0.9,0.9h3.6
	c0.5,0,0.9-0.4,0.9-0.9v-2.9l5.5-1.4l0.9-0.2L20,9.5v9.6C20,19.6,19.6,20,19.1,20L19.1,20z"/>
</svg>
