<?xml version="1.0" encoding="utf-8"?>
<!-- Generator: Adobe Illustrator 22.0.1, SVG Export Plug-In . SVG Version: 6.00 Build 0)  -->
<svg version="1.1" id="Layer_1" xmlns="http://www.w3.org/2000/svg" xmlns:xlink="http://www.w3.org/1999/xlink" x="0px" y="0px"
	 viewBox="0 0 23 23.5" style="enable-background:new 0 0 23 23.5;" xml:space="preserve">
<style type="text/css">
	.st0{fill:#909090;}
</style>
<path class="st0" d="M19.9,8.7l-0.1,0l-0.4-1l0-0.1c1.3-3,1.2-3.1,1-3.3l-1.7-1.7c-0.1-0.1-0.2-0.1-0.3-0.1c-0.1,0-0.4,0-2.9,1.2
	l-0.1,0l-1.1-0.4l0-0.1c-1.2-3-1.3-3-1.6-3h-2.4C9.9,0,9.8,0,8.7,3l0,0.1l-1,0.4l-0.1,0c-1.7-0.7-2.7-1.1-3-1.1
	c-0.1,0-0.2,0-0.3,0.1L2.5,4.3C2.3,4.5,2.2,4.6,3.5,7.5l0.1,0.1l-0.4,1L3,8.7C0,9.9,0,10,0,10.3v2.4c0,0.3,0,0.4,3,1.6l0.1,0l0.4,1
	l0,0.1c-1.3,3-1.2,3.1-1,3.3l1.7,1.7c0.1,0.1,0.2,0.1,0.3,0.1c0.1,0,0.4,0,2.9-1.2l0.1,0l1.1,0.4l0,0.1c1.2,3,1.3,3,1.6,3h2.4
	c0.3,0,0.4,0,1.5-3l0-0.1l1-0.4l0.1,0c1.7,0.7,2.7,1.1,3,1.1c0.1,0,0.2,0,0.3-0.1l1.7-1.7c0.2-0.2,0.3-0.3-1.1-3.2l-0.1-0.1l0.4-1
	l0.1,0c3-1.2,3-1.3,3-1.6v-2.4C23,9.9,23,9.8,19.9,8.7L19.9,8.7z M11.5,15.5c-2.2,0-3.9-1.8-3.9-4c0-2.2,1.8-4,3.9-4
	c2.2,0,3.9,1.8,3.9,4C15.5,13.7,13.7,15.5,11.5,15.5L11.5,15.5z"/>
</svg>
