<?xml version="1.0" encoding="utf-8"?>
<!-- Generator: Adobe Illustrator 22.0.1, SVG Export Plug-In . SVG Version: 6.00 Build 0)  -->
<svg version="1.1" id="Layer_1" xmlns="http://www.w3.org/2000/svg" xmlns:xlink="http://www.w3.org/1999/xlink" x="0px" y="0px"
	 viewBox="0 0 21 20" style="enable-background:new 0 0 21 20;" xml:space="preserve">
<style type="text/css">
	.st0{fill:#FFFFFF;}
</style>
<path class="st0" d="M10.5,3.8c-1,0-1.8-0.8-1.8-1.9c0-1,0.8-1.9,1.8-1.9s1.8,0.8,1.8,1.9C12.3,2.9,11.5,3.8,10.5,3.8L10.5,3.8z
	 M14.2,8.8c-0.7,0-1.2-0.6-1.2-1.3V6.3H8v1.3c0,0.7-0.6,1.3-1.2,1.3c-0.7,0-1.2-0.6-1.2-1.3V5c0-1.2,0.8-2.2,1.9-2.4
	C7.8,4,9,5,10.5,5c1.5,0,2.7-1,3-2.4c1.1,0.2,1.9,1.2,1.9,2.4v2.5C15.4,8.2,14.9,8.8,14.2,8.8L14.2,8.8z M20.8,17.8
	c-0.5,0.9-1.7,1.2-2.6,0.7C17.3,18,17,16.9,17.5,16c0.5-0.9,1.6-1.2,2.5-0.7C20.9,15.8,21.3,16.9,20.8,17.8L20.8,17.8z M20,13.9
	c-1.3-0.4-2.8,0.1-3.6,1.4c-0.7,1.3-0.5,2.9,0.6,3.9c-0.8,0.8-2,1.1-3,0.5l-2.1-1.3c-0.6-0.3-0.8-1.1-0.5-1.7
	c0.3-0.6,1.1-0.8,1.7-0.5l1.1,0.6l2.5-4.3l-1.1-0.6c-0.6-0.3-0.8-1.1-0.5-1.7c0.3-0.6,1.1-0.8,1.7-0.5l2.1,1.3
	C19.9,11.6,20.4,12.8,20,13.9L20,13.9z M2.8,18.5c-0.9,0.5-2.1,0.2-2.6-0.7c-0.5-0.9-0.2-2,0.7-2.6c0.9-0.5,2-0.2,2.5,0.7
	C4,16.9,3.7,18,2.8,18.5L2.8,18.5z M9.1,18.4L7,19.7c-1,0.6-2.3,0.4-3-0.5c1-1,1.3-2.6,0.6-3.9c-0.7-1.3-2.2-1.8-3.6-1.4
	c-0.3-1.1,0.1-2.3,1.1-2.9l2.1-1.3c0.6-0.3,1.3-0.1,1.7,0.5c0.3,0.6,0.1,1.4-0.5,1.7l-1.1,0.6l2.5,4.3l1.1-0.6
	c0.6-0.3,1.3-0.1,1.7,0.5C9.9,17.3,9.7,18.1,9.1,18.4L9.1,18.4z"/>
</svg>
