<?xml version="1.0" encoding="utf-8"?>
<!-- Generator: Adobe Illustrator 22.0.1, SVG Export Plug-In . SVG Version: 6.00 Build 0)  -->
<svg version="1.1" id="Layer_1" xmlns="http://www.w3.org/2000/svg" xmlns:xlink="http://www.w3.org/1999/xlink" x="0px" y="0px"
	 viewBox="0 0 47 40" style="enable-background:new 0 0 47 40;" xml:space="preserve">
<style type="text/css">
	.st0{fill:#432671;}
</style>
<path class="st0" d="M33.3,33.3H5.9c-3.2,0-5.9-2.6-5.9-5.7V5.7C0,2.6,2.6,0,5.9,0h27.4c3.2,0,5.9,2.6,5.9,5.7v21.9
	C39.2,30.8,36.5,33.3,33.3,33.3L33.3,33.3z M37.2,5.7c0-2.1-1.8-3.8-3.9-3.8H5.9C3.7,1.9,2,3.6,2,5.7v21.9c0,2.1,1.8,3.8,3.9,3.8
	h27.4c2.2,0,3.9-1.7,3.9-3.8V5.7L37.2,5.7z M1,7.6V5.7h37.2v1.9H1L1,7.6z M4.9,4.8V2.9h4.9v1.9H4.9L4.9,4.8z M11.7,4.8V2.9h2v1.9
	H11.7L11.7,4.8z M15.7,4.8V2.9h2v1.9H15.7L15.7,4.8z M41.1,40H13.7c-3.2,0-5.9-2.6-5.9-5.7h2c0,2.1,1.8,3.8,3.9,3.8h27.4
	c2.2,0,3.9-1.7,3.9-3.8V10.5c0-2.1-1.8-3.8-3.9-3.8h-1V4.8h1c3.2,0,5.9,2.6,5.9,5.7v23.8C47,37.4,44.4,40,41.1,40L41.1,40z
	 M40.1,12.4v-1.9H46v1.9H40.1L40.1,12.4z M9.4,15.4L8.2,17l-3.9-2.9c-0.4-0.3-0.5-0.9-0.2-1.3c0.1-0.1,0.1-0.1,0.2-0.2l3.9-2.9
	l1.2,1.5l-2.9,2.1L9.4,15.4L9.4,15.4z M16.4,13.9c-0.1,0.1-0.1,0.1-0.2,0.2L12.3,17l-1.2-1.5l2.9-2.1l-2.9-2.1l1.2-1.5l3.9,2.9
	C16.7,12.9,16.8,13.5,16.4,13.9L16.4,13.9z M28,24l-1.2,1.5l-3.9-2.9c-0.4-0.3-0.5-0.9-0.2-1.3c0.1-0.1,0.1-0.1,0.2-0.2l3.9-2.9
	l1.2,1.5l-2.9,2.1L28,24L28,24z M35.1,22.5c-0.1,0.1-0.1,0.1-0.2,0.2l-3.9,2.9L29.8,24l2.9-2.1l-2.9-2.1l1.2-1.5l3.9,2.9
	C35.3,21.5,35.4,22.1,35.1,22.5L35.1,22.5z M18.6,12.4v-1.9h5.9v1.9H18.6L18.6,12.4z M26.4,12.4v-1.9h2v1.9H26.4L26.4,12.4z
	 M30.4,12.4v-1.9h2v1.9H30.4L30.4,12.4z M26.4,16.2v-1.9h5.9v1.9H26.4L26.4,16.2z M22.5,16.2v-1.9h2v1.9H22.5L22.5,16.2z M18.6,16.2
	v-1.9h2v1.9H18.6L18.6,16.2z M6.9,21V19h5.9V21H6.9L6.9,21z M14.7,21V19h2V21H14.7L14.7,21z M18.6,21V19h2V21H18.6L18.6,21z
	 M14.7,24.8v-1.9h5.9v1.9H14.7L14.7,24.8z M10.8,24.8v-1.9h2v1.9H10.8L10.8,24.8z M6.9,24.8v-1.9h2v1.9H6.9L6.9,24.8z M6.9,28.6
	v-1.9h24.5v1.9H6.9L6.9,28.6z M41.1,17.1v-1.9h2v1.9H41.1L41.1,17.1z M41.1,21V19h2V21H41.1L41.1,21z M41.1,24.8v-1.9h2v1.9H41.1
	L41.1,24.8z"/>
</svg>
